<svg width="18" height="18" viewBox="0 0 18 18" fill="none" xmlns="http://www.w3.org/2000/svg">
<path d="M16.1478 5.46048L7.14779 14.4605C7.09555 14.5128 7.03351 14.5543 6.96523 14.5826C6.89694 14.6109 6.82375 14.6255 6.74982 14.6255C6.6759 14.6255 6.60271 14.6109 6.53442 14.5826C6.46613 14.5543 6.4041 14.5128 6.35186 14.4605L2.41436 10.523C2.30881 10.4174 2.24951 10.2743 2.24951 10.125C2.24951 9.97574 2.30881 9.83259 2.41436 9.72704C2.5199 9.62149 2.66306 9.56219 2.81232 9.56219C2.96159 9.56219 3.10475 9.62149 3.21029 9.72704L6.74982 13.2673L15.3519 4.66454C15.4574 4.55899 15.6006 4.49969 15.7498 4.49969C15.8991 4.49969 16.0422 4.55899 16.1478 4.66454C16.2533 4.77009 16.3126 4.91324 16.3126 5.06251C16.3126 5.21177 16.2533 5.35493 16.1478 5.46048Z" fill="#95994C"/>
</svg>
