<svg width="24" height="24" viewBox="0 0 24 24" fill="none" xmlns="http://www.w3.org/2000/svg">
<path d="M21 3.5H3C2.80109 3.5 2.61032 3.57902 2.46967 3.71967C2.32902 3.86032 2.25 4.05109 2.25 4.25V17C2.25 17.3978 2.40804 17.7794 2.68934 18.0607C2.97064 18.342 3.35218 18.5 3.75 18.5H20.25C20.6478 18.5 21.0294 18.342 21.3107 18.0607C21.592 17.7794 21.75 17.3978 21.75 17V4.25C21.75 4.05109 21.671 3.86032 21.5303 3.71967C21.3897 3.57902 21.1989 3.5 21 3.5ZM19.0716 5L12 11.4828L4.92844 5H19.0716ZM20.25 17H3.75V5.95531L11.4928 13.0531C11.6312 13.1801 11.8122 13.2506 12 13.2506C12.1878 13.2506 12.3688 13.1801 12.5072 13.0531L20.25 5.95531V17Z" fill="#432918"/>
</svg>
