<svg width="24" height="24" viewBox="0 0 24 24" fill="none" xmlns="http://www.w3.org/2000/svg">
<g clip-path="url(#clip0_60_98)">
<path d="M16.5 6.37494C16.5 6.59744 16.434 6.81495 16.3104 6.99996C16.1868 7.18496 16.0111 7.32915 15.8055 7.4143C15.5999 7.49945 15.3737 7.52173 15.1555 7.47832C14.9373 7.43491 14.7368 7.32777 14.5795 7.17043C14.4222 7.0131 14.315 6.81264 14.2716 6.59442C14.2282 6.37619 14.2505 6.14999 14.3356 5.94442C14.4208 5.73885 14.565 5.56315 14.75 5.43954C14.935 5.31592 15.1525 5.24994 15.375 5.24994C15.6734 5.24994 15.9595 5.36847 16.1705 5.57944C16.3815 5.79042 16.5 6.07657 16.5 6.37494ZM11.73 12.1734C11.6545 12.1102 11.5672 12.0624 11.4733 12.0329C11.3793 12.0034 11.2804 11.9927 11.1823 12.0014C11.0842 12.0101 10.9887 12.0381 10.9014 12.0837C10.8141 12.1292 10.7366 12.1916 10.6734 12.2671L6.92343 16.7671C6.79613 16.92 6.73478 17.1173 6.75289 17.3154C6.771 17.5135 6.86708 17.6964 7.02 17.8237C7.17291 17.951 7.37013 18.0123 7.56828 17.9942C7.76642 17.9761 7.94925 17.88 8.07656 17.7271L11.8266 13.2271C11.953 13.0744 12.0139 12.8778 11.9958 12.6803C11.9777 12.4828 11.8821 12.3006 11.73 12.1734ZM22.5 7.49994C22.5001 7.62345 22.4697 7.74506 22.4114 7.85399C22.3532 7.96291 22.269 8.05577 22.1662 8.12431L20.25 9.40119V11.2499C20.2473 13.835 19.2192 16.3133 17.3913 18.1412C15.5634 19.9691 13.085 20.9972 10.5 20.9999H0.749996C0.608657 21 0.470169 20.9602 0.350494 20.885C0.23082 20.8098 0.13483 20.7023 0.0735881 20.5749C0.0123464 20.4475 -0.0116542 20.3054 0.0043525 20.165C0.0203592 20.0246 0.0757216 19.8915 0.164059 19.7812L9 8.7365V7.12494C8.99873 5.78128 9.47849 4.48155 10.3524 3.46096C11.2264 2.44036 12.4368 1.76633 13.7647 1.56082C15.0925 1.35532 16.4501 1.63192 17.5917 2.34058C18.7333 3.04924 19.5835 4.14313 19.9884 5.42431L22.1662 6.87556C22.269 6.94411 22.3532 7.03697 22.4114 7.14589C22.4697 7.25482 22.5001 7.37643 22.5 7.49994ZM20.3981 7.49994L18.9281 6.51931C18.7748 6.41733 18.6643 6.26249 18.6178 6.08431C18.3657 5.11249 17.7678 4.26598 16.9362 3.70346C16.1046 3.14094 15.0963 2.90102 14.1005 3.02868C13.1047 3.15633 12.1896 3.6428 11.5267 4.3969C10.8639 5.151 10.4988 6.12095 10.5 7.12494V8.99994C10.5001 9.17029 10.4423 9.3356 10.3359 9.46869L2.31 19.4999H10.5C12.6873 19.4975 14.7842 18.6275 16.3309 17.0808C17.8775 15.5342 18.7475 13.4372 18.75 11.2499V8.99994C18.7499 8.87643 18.7803 8.75482 18.8386 8.64589C18.8968 8.53697 18.981 8.44411 19.0837 8.37556L20.3981 7.49994Z" fill="#7C5944"/>
</g>
<defs>
<clipPath id="clip0_60_98">
<rect width="24" height="24" fill="white"/>
</clipPath>
</defs>
</svg>
